<?xml version="1.0" encoding="iso-8859-1"?>
<svg fill="#000000" version="1.1" id="Layer_1" xmlns="http://www.w3.org/2000/svg"
	xmlns:xlink="http://www.w3.org/1999/xlink"
	viewBox="0 0 512 512" xml:space="preserve">
<g>
	<g>
		<path d="M395.631,98.837C358.783,45.867,309.195,16.696,256,16.696S153.217,45.867,116.369,98.837
			c-35.565,51.124-55.151,118.797-55.151,190.554c0,113.54,87.379,205.913,194.783,205.913s194.783-92.373,194.783-205.913
			C450.783,217.635,431.196,149.962,395.631,98.837z M256,461.913c-85.995,0-156.491-72.271-161.141-162.976l61.911-35.377
			l30.95,13.756l14.949-29.896l-47.786-21.239l-59.058,33.747c4.457-53.789,21.09-103.404,47.954-142.021
			c30.424-43.735,70.276-67.82,112.22-67.82c41.944,0,81.796,24.085,112.22,67.82c27.182,39.073,43.883,89.411,48.1,143.935
			l-71.277-35.64l-89.463,44.731l-22.369-9.942l-14.948,29.896l38.155,16.957l88.625-44.309l72.06,36.03
			C412.159,389.976,341.796,461.913,256,461.913z"/>
	</g>
</g>
<g>
	<g>
		<rect y="128" width="55.652" height="33.391"/>
	</g>
</g>
<g>
	<g>
		<rect x="24.183" y="40.811" transform="matrix(0.3333 -0.9428 0.9428 0.3333 -37.458 84.2995)" width="33.391" height="55.65"/>
	</g>
</g>
<g>
	<g>
		<rect x="456.348" y="128" width="55.652" height="33.391"/>
	</g>
</g>
<g>
	<g>
		<rect x="443.282" y="51.937" transform="matrix(0.9428 -0.3333 0.3333 0.9428 4.0631 160.9478)" width="55.65" height="33.391"/>
	</g>
</g>
</svg>